<?xml version="1.0" encoding="utf-8"?>
<!-- Generator: Adobe Illustrator 20.1.0, SVG Export Plug-In . SVG Version: 6.00 Build 0)  -->
<!DOCTYPE svg PUBLIC "-//W3C//DTD SVG 1.1//EN" "http://www.w3.org/Graphics/SVG/1.1/DTD/svg11.dtd" [
	<!ENTITY st0 "fill:#D6D3CF;">
	<!ENTITY st1 "filter:url(#Adobe_OpacityMaskFilter);">
	<!ENTITY st2 "mask:url(#SVGID_1_);fill:url(#SVGID_2_);">
	<!ENTITY st3 "fill:#09246B;">
	<!ENTITY st4 "fill:url(#SVGID_3_);">
	<!ENTITY st5 "filter:url(#Adobe_OpacityMaskFilter_1_);">
	<!ENTITY st6 "mask:url(#SVGID_4_);fill:url(#SVGID_5_);">
	<!ENTITY st7 "fill:#FFFFFF;">
	<!ENTITY st8 "fill:none;">
	<!ENTITY st9 "fill:#231815;">
	<!ENTITY st10 "clip-path:url(#SVGID_7_);">
	<!ENTITY st11 "clip-path:url(#SVGID_9_);">
	<!ENTITY st12 "clip-path:url(#SVGID_11_);">
	<!ENTITY st13 "clip-path:url(#SVGID_13_);">
	<!ENTITY st14 "clip-path:url(#SVGID_15_);">
	<!ENTITY st15 "clip-path:url(#SVGID_17_);">
	<!ENTITY st16 "clip-path:url(#SVGID_19_);">
	<!ENTITY st17 "clip-path:url(#SVGID_21_);">
]>
<svg version="1.1" id="圖層_1" xmlns="http://www.w3.org/2000/svg" xmlns:xlink="http://www.w3.org/1999/xlink" x="0px" y="0px"
	 viewBox="0 0 500 500" style="enable-background:new 0 0 500 500;" xml:space="preserve">
<g>
	<rect x="-307" y="-144" style="&st0;" width="614" height="288"/>
	<g>
		<defs>
			<filter id="Adobe_OpacityMaskFilter" filterUnits="userSpaceOnUse" x="-300" y="-137" width="600" height="274">
				<feFlood  style="flood-color:white;flood-opacity:1" result="back"/>
				<feBlend  in="SourceGraphic" in2="back" mode="normal"/>
			</filter>
		</defs>
		<mask maskUnits="userSpaceOnUse" x="-300" y="-137" width="600" height="274" id="SVGID_1_">
			<g style="&st1;">
				
					<image style="overflow:visible;" width="2517" height="1159" xlink:href="F136027B4643D303.jpg"  transform="matrix(0.24 0 0 0.24 -302 -139)">
				</image>
			</g>
		</mask>
		<linearGradient id="SVGID_2_" gradientUnits="userSpaceOnUse" x1="208.6253" y1="208.6231" x2="-348.8596" y2="-348.856">
			<stop  offset="0" style="stop-color:#E6E7EA"/>
			<stop  offset="0.2129" style="stop-color:#E3E4E6"/>
			<stop  offset="0.4026" style="stop-color:#D8D9DC"/>
			<stop  offset="0.5833" style="stop-color:#C6C8C9"/>
			<stop  offset="0.7586" style="stop-color:#ACAFB0"/>
			<stop  offset="0.9285" style="stop-color:#8C908F"/>
			<stop  offset="1" style="stop-color:#7C807F"/>
		</linearGradient>
		<rect x="-300" y="-137" style="&st2;" width="600" height="274"/>
	</g>
</g>
<rect x="-300" y="-137" style="&st3;" width="600" height="48.2"/>
<g>
	<linearGradient id="SVGID_3_" gradientUnits="userSpaceOnUse" x1="256.0684" y1="-129.7442" x2="289.7822" y2="-96.0302">
		<stop  offset="0" style="stop-color:#E6E7EA"/>
		<stop  offset="0.1747" style="stop-color:#E2E3E6"/>
		<stop  offset="0.3538" style="stop-color:#D6D7DA"/>
		<stop  offset="0.5349" style="stop-color:#C1C4C5"/>
		<stop  offset="0.7174" style="stop-color:#A4A8A8"/>
		<stop  offset="0.8993" style="stop-color:#808584"/>
		<stop  offset="1" style="stop-color:#686E6C"/>
	</linearGradient>
	<rect x="256.1" y="-129.7" style="&st4;" width="33.7" height="33.7"/>
	<g>
		<defs>
			<filter id="Adobe_OpacityMaskFilter_1_" filterUnits="userSpaceOnUse" x="263.1" y="-122.7" width="19.7" height="19.7">
				<feFlood  style="flood-color:white;flood-opacity:1" result="back"/>
				<feBlend  in="SourceGraphic" in2="back" mode="normal"/>
			</filter>
		</defs>
		<mask maskUnits="userSpaceOnUse" x="263.1" y="-122.7" width="19.7" height="19.7" id="SVGID_4_">
			<g style="&st5;">
				
					<image style="overflow:visible;" width="99" height="99" xlink:href="F136027B4643D306.jpg"  transform="matrix(0.24 0 0 0.24 261.0682 -124.7439)">
				</image>
			</g>
		</mask>
		<linearGradient id="SVGID_5_" gradientUnits="userSpaceOnUse" x1="263.0682" y1="-112.8871" x2="282.7817" y2="-112.8871">
			<stop  offset="0" style="stop-color:#E6E7EA"/>
			<stop  offset="0.2129" style="stop-color:#E3E4E6"/>
			<stop  offset="0.4026" style="stop-color:#D8D9DC"/>
			<stop  offset="0.5833" style="stop-color:#C6C8C9"/>
			<stop  offset="0.7586" style="stop-color:#ACAFB0"/>
			<stop  offset="0.9285" style="stop-color:#8C908F"/>
			<stop  offset="1" style="stop-color:#7C807F"/>
		</linearGradient>
		<rect x="263.1" y="-122.7" style="&st6;" width="19.7" height="19.7"/>
	</g>
</g>
<g>
	<path style="&st7;" d="M-280.5-104.8v-2.2h-2.2v-15.3h2.2v-2.2h10.9v2.2h2.2v15.3h-2.2v2.2H-280.5z M-271.8-107v-15.3h-6.5v15.3
		H-271.8z"/>
	<path style="&st7;" d="M-262.1-104.8v-19.6h4.4v6.5h6.5v2.2h2.2v10.9h-4.4v-10.9h-2.2v2.2h-2.2v8.7H-262.1z"/>
	<path style="&st7;" d="M-231.7-104.8v-2.2h-2.2v-2.2h4.4v2.2h4.4v-6.5h-6.5v-2.2h-2.2v-6.5h2.2v-2.2h8.7v2.2h2.2v2.2h-4.4v-2.2
		h-4.4v6.5h6.5v2.2h2.2v6.5h-2.2v2.2H-231.7z"/>
	<path style="&st7;" d="M-215.5-104.8v-19.6h4.4v6.5h6.5v2.2h2.2v10.9h-4.4v-10.9h-2.2v2.2h-2.2v8.7H-215.5z"/>
	<path style="&st7;" d="M-197-122.3v-2.2h4.4v2.2H-197z M-197-104.8v-13.1h4.4v13.1H-197z"/>
	<path style="&st7;" d="M-185.1-104.8v-2.2h-2.2v-15.3h4.4v4.4h2.2v2.2h-2.2v8.7h2.2v2.2H-185.1z"/>
	<path style="&st7;" d="M-165.7-109.2v-15.3h4.4v15.3H-165.7z M-165.7-104.8v-2.2h4.4v2.2H-165.7z"/>
	<path style="&st7;" d="M-146.3-109.2v-15.3h4.4v15.3H-146.3z M-146.3-104.8v-2.2h4.4v2.2H-146.3z"/>
	<path style="&st7;" d="M-126.9-109.2v-15.3h4.4v15.3H-126.9z M-126.9-104.8v-2.2h4.4v2.2H-126.9z"/>
</g>
<g>
	<rect x="-86.8" y="59" style="&st8;" width="173.5" height="52.7"/>
</g>
<rect x="-86.6" y="50.5" style="&st9;" width="173.2" height="54.5"/>
<rect x="-82.6" y="55" style="&st0;" width="165.3" height="45.5"/>
<g>
	<g>
		<g>
			<g>
				<rect x="-77.6" y="90.3" width="1.2" height="1.2"/>
				<rect x="-77.6" y="88.1" width="1.2" height="1.2"/>
				<rect x="-77.6" y="86" width="1.2" height="1.2"/>
			</g>
			<g>
				<rect x="-77.6" y="84.8" width="1.2" height="1.2"/>
				<rect x="-77.6" y="82.6" width="1.2" height="1.2"/>
				<rect x="-77.6" y="80.5" width="1.2" height="1.2"/>
			</g>
			<g>
				<rect x="-77.6" y="79.3" width="1.2" height="1.2"/>
				<rect x="-77.6" y="77.1" width="1.2" height="1.2"/>
				<rect x="-77.6" y="75" width="1.2" height="1.2"/>
			</g>
			<g>
				<rect x="-77.6" y="73.8" width="1.2" height="1.2"/>
				<rect x="-77.6" y="71.6" width="1.2" height="1.2"/>
				<rect x="-77.6" y="69.5" width="1.2" height="1.2"/>
			</g>
			<g>
				<rect x="-77.6" y="68.3" width="1.2" height="1.2"/>
				<rect x="-77.6" y="66" width="1.2" height="1.2"/>
				<rect x="-77.6" y="64" width="1.2" height="1.2"/>
			</g>
			<g>
				<rect x="-74.3" y="60.6" width="1.2" height="1.2"/>
				<rect x="-72.1" y="60.6" width="1.2" height="1.2"/>
				<rect x="-70" y="60.6" width="1.2" height="1.2"/>
			</g>
			<g>
				<rect x="-68.8" y="60.6" width="1.2" height="1.2"/>
				<rect x="-66.6" y="60.6" width="1.2" height="1.2"/>
				<rect x="-64.5" y="60.6" width="1.2" height="1.2"/>
			</g>
			<g>
				<rect x="-63.3" y="60.6" width="1.2" height="1.2"/>
				<rect x="-61.1" y="60.6" width="1.2" height="1.2"/>
				<rect x="-59" y="60.6" width="1.2" height="1.2"/>
			</g>
			<g>
				<rect x="-57.8" y="60.6" width="1.2" height="1.2"/>
				<rect x="-55.6" y="60.6" width="1.2" height="1.2"/>
				<rect x="-53.5" y="60.6" width="1.2" height="1.2"/>
			</g>
			<g>
				<rect x="-52.3" y="60.6" width="1.2" height="1.2"/>
				<rect x="-50.1" y="60.6" width="1.2" height="1.2"/>
				<rect x="-48" y="60.6" width="1.2" height="1.2"/>
			</g>
			<g>
				<rect x="-46.8" y="60.6" width="1.2" height="1.2"/>
				<rect x="-44.5" y="60.6" width="1.2" height="1.2"/>
				<rect x="-42.5" y="60.6" width="1.2" height="1.2"/>
			</g>
			<g>
				<rect x="-41.3" y="60.6" width="1.2" height="1.2"/>
				<rect x="-39" y="60.6" width="1.2" height="1.2"/>
				<rect x="-37" y="60.6" width="1.2" height="1.2"/>
			</g>
			<g>
				<rect x="-35.8" y="60.6" width="1.2" height="1.2"/>
				<rect x="-33.5" y="60.6" width="1.2" height="1.2"/>
				<rect x="-31.5" y="60.6" width="1.2" height="1.2"/>
			</g>
			<g>
				<rect x="-30.3" y="60.6" width="1.2" height="1.2"/>
				<rect x="-28" y="60.6" width="1.2" height="1.2"/>
				<rect x="-26" y="60.6" width="1.2" height="1.2"/>
			</g>
			<g>
				<rect x="-24.8" y="60.6" width="1.2" height="1.2"/>
				<rect x="-22.5" y="60.6" width="1.2" height="1.2"/>
				<rect x="-20.5" y="60.6" width="1.2" height="1.2"/>
			</g>
			<g>
				<rect x="-19.3" y="60.6" width="1.2" height="1.2"/>
				<rect x="-17" y="60.6" width="1.2" height="1.2"/>
				<rect x="-15" y="60.6" width="1.2" height="1.2"/>
			</g>
			<g>
				<rect x="-13.8" y="60.6" width="1.2" height="1.2"/>
				<rect x="-11.5" y="60.6" width="1.2" height="1.2"/>
				<rect x="-9.5" y="60.6" width="1.2" height="1.2"/>
			</g>
			<g>
				<rect x="-8.3" y="60.6" width="1.2" height="1.2"/>
				<rect x="-6" y="60.6" width="1.2" height="1.2"/>
				<rect x="-4" y="60.6" width="1.2" height="1.2"/>
			</g>
			<g>
				<rect x="-2.8" y="60.6" width="1.2" height="1.2"/>
				<rect x="-0.5" y="60.6" width="1.2" height="1.2"/>
				<rect x="1.5" y="60.6" width="1.2" height="1.2"/>
			</g>
			<g>
				<rect x="2.8" y="60.6" width="1.2" height="1.2"/>
				<rect x="5" y="60.6" width="1.2" height="1.2"/>
				<rect x="7" y="60.6" width="1.2" height="1.2"/>
			</g>
			<g>
				<rect x="8.3" y="60.6" width="1.2" height="1.2"/>
				<rect x="10.5" y="60.6" width="1.2" height="1.2"/>
				<rect x="12.5" y="60.6" width="1.2" height="1.2"/>
			</g>
			<g>
				<rect x="13.8" y="60.6" width="1.2" height="1.2"/>
				<rect x="16" y="60.6" width="1.2" height="1.2"/>
				<rect x="18.1" y="60.6" width="1.2" height="1.2"/>
			</g>
			<g>
				<rect x="19.3" y="60.6" width="1.2" height="1.2"/>
				<rect x="21.5" y="60.6" width="1.2" height="1.2"/>
				<rect x="23.6" y="60.6" width="1.2" height="1.2"/>
			</g>
			<g>
				<rect x="24.8" y="60.6" width="1.2" height="1.2"/>
				<rect x="27" y="60.6" width="1.2" height="1.2"/>
				<rect x="29.1" y="60.6" width="1.2" height="1.2"/>
			</g>
			<g>
				<rect x="30.3" y="60.6" width="1.2" height="1.2"/>
				<rect x="32.5" y="60.6" width="1.2" height="1.2"/>
				<rect x="34.6" y="60.6" width="1.2" height="1.2"/>
			</g>
			<g>
				<rect x="35.8" y="60.6" width="1.2" height="1.2"/>
				<rect x="38" y="60.6" width="1.2" height="1.2"/>
				<rect x="40.1" y="60.6" width="1.2" height="1.2"/>
			</g>
			<g>
				<rect x="41.3" y="60.6" width="1.2" height="1.2"/>
				<rect x="43.5" y="60.6" width="1.2" height="1.2"/>
				<rect x="45.6" y="60.6" width="1.2" height="1.2"/>
			</g>
			<g>
				<rect x="46.8" y="60.6" width="1.2" height="1.2"/>
				<rect x="49" y="60.6" width="1.2" height="1.2"/>
				<rect x="51.1" y="60.6" width="1.2" height="1.2"/>
			</g>
			<g>
				<rect x="52.3" y="60.6" width="1.2" height="1.2"/>
				<rect x="54.5" y="60.6" width="1.2" height="1.2"/>
				<rect x="56.6" y="60.6" width="1.2" height="1.2"/>
			</g>
			<g>
				<rect x="57.8" y="60.6" width="1.2" height="1.2"/>
				<rect x="60" y="60.6" width="1.2" height="1.2"/>
				<rect x="62.1" y="60.6" width="1.2" height="1.2"/>
			</g>
			<g>
				<rect x="63.3" y="60.6" width="1.2" height="1.2"/>
				<rect x="65.5" y="60.6" width="1.2" height="1.2"/>
				<rect x="67.6" y="60.6" width="1.2" height="1.2"/>
			</g>
			<g>
				<rect x="68.8" y="60.6" width="1.2" height="1.2"/>
				<rect x="71" y="60.6" width="1.2" height="1.2"/>
				<rect x="73.1" y="60.6" width="1.2" height="1.2"/>
			</g>
			<g>
				<rect x="76.4" y="64" width="1.2" height="1.2"/>
				<rect x="76.4" y="66.2" width="1.2" height="1.2"/>
				<rect x="76.4" y="68.3" width="1.2" height="1.2"/>
			</g>
			<g>
				<rect x="76.4" y="69.5" width="1.2" height="1.2"/>
				<rect x="76.4" y="71.7" width="1.2" height="1.2"/>
				<rect x="76.4" y="73.8" width="1.2" height="1.2"/>
			</g>
			<g>
				<rect x="76.4" y="75" width="1.2" height="1.2"/>
				<rect x="76.4" y="77.2" width="1.2" height="1.2"/>
				<rect x="76.4" y="79.3" width="1.2" height="1.2"/>
			</g>
			<g>
				<rect x="76.4" y="80.5" width="1.2" height="1.2"/>
				<rect x="76.4" y="82.8" width="1.2" height="1.2"/>
				<rect x="76.4" y="84.8" width="1.2" height="1.2"/>
			</g>
			<g>
				<rect x="76.4" y="86" width="1.2" height="1.2"/>
				<rect x="76.4" y="88.3" width="1.2" height="1.2"/>
				<rect x="76.4" y="90.3" width="1.2" height="1.2"/>
			</g>
			<g>
				<rect x="73.1" y="93.7" width="1.2" height="1.2"/>
				<rect x="70.9" y="93.7" width="1.2" height="1.2"/>
				<rect x="68.8" y="93.7" width="1.2" height="1.2"/>
			</g>
			<g>
				<rect x="67.6" y="93.7" width="1.2" height="1.2"/>
				<rect x="65.4" y="93.7" width="1.2" height="1.2"/>
				<rect x="63.3" y="93.7" width="1.2" height="1.2"/>
			</g>
			<g>
				<rect x="62.1" y="93.7" width="1.2" height="1.2"/>
				<rect x="59.8" y="93.7" width="1.2" height="1.2"/>
				<rect x="57.8" y="93.7" width="1.2" height="1.2"/>
			</g>
			<g>
				<rect x="56.6" y="93.7" width="1.2" height="1.2"/>
				<rect x="54.3" y="93.7" width="1.2" height="1.2"/>
				<rect x="52.3" y="93.7" width="1.2" height="1.2"/>
			</g>
			<g>
				<rect x="51.1" y="93.7" width="1.2" height="1.2"/>
				<rect x="48.8" y="93.7" width="1.2" height="1.2"/>
				<rect x="46.8" y="93.7" width="1.2" height="1.2"/>
			</g>
			<g>
				<rect x="45.6" y="93.7" width="1.2" height="1.2"/>
				<rect x="43.3" y="93.7" width="1.2" height="1.2"/>
				<rect x="41.3" y="93.7" width="1.2" height="1.2"/>
			</g>
			<g>
				<rect x="40.1" y="93.7" width="1.2" height="1.2"/>
				<rect x="37.8" y="93.7" width="1.2" height="1.2"/>
				<rect x="35.8" y="93.7" width="1.2" height="1.2"/>
			</g>
			<g>
				<rect x="34.6" y="93.7" width="1.2" height="1.2"/>
				<rect x="32.3" y="93.7" width="1.2" height="1.2"/>
				<rect x="30.3" y="93.7" width="1.2" height="1.2"/>
			</g>
			<g>
				<rect x="29.1" y="93.7" width="1.2" height="1.2"/>
				<rect x="26.8" y="93.7" width="1.2" height="1.2"/>
				<rect x="24.8" y="93.7" width="1.2" height="1.2"/>
			</g>
			<g>
				<rect x="23.6" y="93.7" width="1.2" height="1.2"/>
				<rect x="21.3" y="93.7" width="1.2" height="1.2"/>
				<rect x="19.3" y="93.7" width="1.2" height="1.2"/>
			</g>
			<g>
				<rect x="18.1" y="93.7" width="1.2" height="1.2"/>
				<rect x="15.8" y="93.7" width="1.2" height="1.2"/>
				<rect x="13.8" y="93.7" width="1.2" height="1.2"/>
			</g>
			<g>
				<rect x="12.5" y="93.7" width="1.2" height="1.2"/>
				<rect x="10.3" y="93.7" width="1.2" height="1.2"/>
				<rect x="8.3" y="93.7" width="1.2" height="1.2"/>
			</g>
			<g>
				<rect x="7" y="93.7" width="1.2" height="1.2"/>
				<rect x="4.8" y="93.7" width="1.2" height="1.2"/>
				<rect x="2.8" y="93.7" width="1.2" height="1.2"/>
			</g>
			<g>
				<rect x="1.5" y="93.7" width="1.2" height="1.2"/>
				<rect x="-0.7" y="93.7" width="1.2" height="1.2"/>
				<rect x="-2.8" y="93.7" width="1.2" height="1.2"/>
			</g>
			<g>
				<rect x="-4" y="93.7" width="1.2" height="1.2"/>
				<rect x="-6.2" y="93.7" width="1.2" height="1.2"/>
				<rect x="-8.3" y="93.7" width="1.2" height="1.2"/>
			</g>
			<g>
				<rect x="-9.5" y="93.7" width="1.2" height="1.2"/>
				<rect x="-11.7" y="93.7" width="1.2" height="1.2"/>
				<rect x="-13.8" y="93.7" width="1.2" height="1.2"/>
			</g>
			<g>
				<rect x="-15" y="93.7" width="1.2" height="1.2"/>
				<rect x="-17.2" y="93.7" width="1.2" height="1.2"/>
				<rect x="-19.3" y="93.7" width="1.2" height="1.2"/>
			</g>
			<g>
				<rect x="-20.5" y="93.7" width="1.2" height="1.2"/>
				<rect x="-22.7" y="93.7" width="1.2" height="1.2"/>
				<rect x="-24.8" y="93.7" width="1.2" height="1.2"/>
			</g>
			<g>
				<rect x="-26" y="93.7" width="1.2" height="1.2"/>
				<rect x="-28.2" y="93.7" width="1.2" height="1.2"/>
				<rect x="-30.3" y="93.7" width="1.2" height="1.2"/>
			</g>
			<g>
				<rect x="-31.5" y="93.7" width="1.2" height="1.2"/>
				<rect x="-33.7" y="93.7" width="1.2" height="1.2"/>
				<rect x="-35.8" y="93.7" width="1.2" height="1.2"/>
			</g>
			<g>
				<rect x="-37" y="93.7" width="1.2" height="1.2"/>
				<rect x="-39.2" y="93.7" width="1.2" height="1.2"/>
				<rect x="-41.3" y="93.7" width="1.2" height="1.2"/>
			</g>
			<g>
				<rect x="-42.5" y="93.7" width="1.2" height="1.2"/>
				<rect x="-44.7" y="93.7" width="1.2" height="1.2"/>
				<rect x="-46.8" y="93.7" width="1.2" height="1.2"/>
			</g>
			<g>
				<rect x="-48" y="93.7" width="1.2" height="1.2"/>
				<rect x="-50.2" y="93.7" width="1.2" height="1.2"/>
				<rect x="-52.3" y="93.7" width="1.2" height="1.2"/>
			</g>
			<g>
				<rect x="-53.5" y="93.7" width="1.2" height="1.2"/>
				<rect x="-55.7" y="93.7" width="1.2" height="1.2"/>
				<rect x="-57.8" y="93.7" width="1.2" height="1.2"/>
			</g>
			<g>
				<rect x="-59" y="93.7" width="1.2" height="1.2"/>
				<rect x="-61.2" y="93.7" width="1.2" height="1.2"/>
				<rect x="-63.3" y="93.7" width="1.2" height="1.2"/>
			</g>
			<g>
				<rect x="-64.5" y="93.7" width="1.2" height="1.2"/>
				<rect x="-66.7" y="93.7" width="1.2" height="1.2"/>
				<rect x="-68.8" y="93.7" width="1.2" height="1.2"/>
			</g>
			<g>
				<rect x="-70" y="93.7" width="1.2" height="1.2"/>
				<rect x="-72.2" y="93.7" width="1.2" height="1.2"/>
				<rect x="-74.3" y="93.7" width="1.2" height="1.2"/>
			</g>
			<g>
				<defs>
					<polygon id="SVGID_6_" points="-76.4,64 -76.4,61.8 -77.6,60.6 -77.6,64 					"/>
				</defs>
				<clipPath id="SVGID_7_">
					<use xlink:href="#SVGID_6_"  style="overflow:visible;"/>
				</clipPath>
				<rect x="-77.6" y="62.8" style="&st10;" width="1.2" height="1.2"/>
				<rect x="-77.6" y="60.5" style="&st10;" width="1.2" height="1.2"/>
				<rect x="-77.6" y="58.5" style="&st10;" width="1.2" height="1.2"/>
			</g>
			<g>
				<defs>
					<polygon id="SVGID_8_" points="-74.3,61.8 -76.4,61.8 -77.6,60.6 -74.3,60.6 					"/>
				</defs>
				<clipPath id="SVGID_9_">
					<use xlink:href="#SVGID_8_"  style="overflow:visible;"/>
				</clipPath>
				<rect x="-79.8" y="60.6" style="&st11;" width="1.2" height="1.2"/>
				<rect x="-77.6" y="60.6" style="&st11;" width="1.2" height="1.2"/>
				<rect x="-75.5" y="60.6" style="&st11;" width="1.2" height="1.2"/>
			</g>
			<g>
				<defs>
					<polygon id="SVGID_10_" points="74.3,61.8 76.4,61.8 77.6,60.6 74.3,60.6 					"/>
				</defs>
				<clipPath id="SVGID_11_">
					<use xlink:href="#SVGID_10_"  style="overflow:visible;"/>
				</clipPath>
				<rect x="74.3" y="60.6" style="&st12;" width="1.2" height="1.2"/>
				<rect x="76.5" y="60.6" style="&st12;" width="1.2" height="1.2"/>
				<rect x="78.6" y="60.6" style="&st12;" width="1.2" height="1.2"/>
			</g>
			<g>
				<defs>
					<polygon id="SVGID_12_" points="76.4,64 76.4,61.8 77.6,60.6 77.6,64 					"/>
				</defs>
				<clipPath id="SVGID_13_">
					<use xlink:href="#SVGID_12_"  style="overflow:visible;"/>
				</clipPath>
				<rect x="76.4" y="58.5" style="&st13;" width="1.2" height="1.2"/>
				<rect x="76.4" y="60.7" style="&st13;" width="1.2" height="1.2"/>
				<rect x="76.4" y="62.8" style="&st13;" width="1.2" height="1.2"/>
			</g>
			<g>
				<defs>
					<polygon id="SVGID_14_" points="76.4,91.5 76.4,93.7 77.6,94.9 77.6,91.5 					"/>
				</defs>
				<clipPath id="SVGID_15_">
					<use xlink:href="#SVGID_14_"  style="overflow:visible;"/>
				</clipPath>
				<rect x="76.4" y="91.5" style="&st14;" width="1.2" height="1.2"/>
				<rect x="76.4" y="93.8" style="&st14;" width="1.2" height="1.2"/>
				<rect x="76.4" y="95.8" style="&st14;" width="1.2" height="1.2"/>
			</g>
			<g>
				<defs>
					<polygon id="SVGID_16_" points="74.3,93.7 76.4,93.7 77.6,94.9 74.3,94.9 					"/>
				</defs>
				<clipPath id="SVGID_17_">
					<use xlink:href="#SVGID_16_"  style="overflow:visible;"/>
				</clipPath>
				<rect x="78.6" y="93.7" style="&st15;" width="1.2" height="1.2"/>
				<rect x="76.4" y="93.7" style="&st15;" width="1.2" height="1.2"/>
				<rect x="74.3" y="93.7" style="&st15;" width="1.2" height="1.2"/>
			</g>
			<g>
				<defs>
					<polygon id="SVGID_18_" points="-74.3,93.7 -76.4,93.7 -77.6,94.9 -74.3,94.9 					"/>
				</defs>
				<clipPath id="SVGID_19_">
					<use xlink:href="#SVGID_18_"  style="overflow:visible;"/>
				</clipPath>
				<rect x="-75.5" y="93.7" style="&st16;" width="1.2" height="1.2"/>
				<rect x="-77.7" y="93.7" style="&st16;" width="1.2" height="1.2"/>
				<rect x="-79.8" y="93.7" style="&st16;" width="1.2" height="1.2"/>
			</g>
			<g>
				<defs>
					<polygon id="SVGID_20_" points="-76.4,91.5 -76.4,93.7 -77.6,94.9 -77.6,91.5 					"/>
				</defs>
				<clipPath id="SVGID_21_">
					<use xlink:href="#SVGID_20_"  style="overflow:visible;"/>
				</clipPath>
				<rect x="-77.6" y="95.8" style="&st17;" width="1.2" height="1.2"/>
				<rect x="-77.6" y="93.6" style="&st17;" width="1.2" height="1.2"/>
				<rect x="-77.6" y="91.5" style="&st17;" width="1.2" height="1.2"/>
			</g>
		</g>
	</g>
</g>
<g>
	<path d="M-16.2,89.4v-2.5h-2.5V69h2.5v-2.5h12.7V69h2.5v17.8h-2.5v2.5H-16.2z M-6,86.9V69h-7.6v17.8H-6z"/>
	<path d="M1.6,89.4V66.5h5.1v5.1h2.5V69h2.5v-2.5h5.1V69h-2.5v2.5h-2.5v2.5H9.3v5.1h2.5v2.5h2.5v2.5h2.5v2.5h2.5v2.5h-5.1v-2.5h-2.5
		v-2.5H9.3v-2.5H6.7v7.6H1.6z"/>
</g>
<g>
	<path d="M262.1-100.9v-5.1h2.5v-2.5h2.5v-2.5h2.5v-2.5h-2.5v-2.5h-2.5v-2.5h-2.5v-5.1h5.1v5.1h2.5v2.5h5.1v-2.5h2.5v-5.1h5.1v5.1
		h-2.5v2.5h-2.5v2.5h-2.5v2.5h2.5v2.5h2.5v2.5h2.5v5.1h-5.1v-5.1h-2.5v-2.5h-5.1v2.5h-2.5v5.1H262.1z"/>
</g>
<image style="overflow:visible;" width="440" height="329" xlink:href="../../../../Desktop/caution.png"  transform="matrix(0.2888 0 0 0.2888 -273.3915 -70.9845)">
</image>
<g>
	<path d="M-134.3-23.5v-2h-2v-16h4v16h6v-16h4v16h-2v2H-134.3z"/>
	<path d="M-120.3-23.5v-12h10v2h2v10h-4v-10h-2v2h-2v8H-120.3z"/>
	<path d="M-104.3-23.5v-2h-2v-8h2v-2h8v2h2v4h-8v4h4v-2h4v2h-2v2H-104.3z M-98.3-31.5v-2h-4v2H-98.3z"/>
	<path d="M-92.3-23.5v-4h2v-4h-2v-4h4v4h2v-4h4v4h-2v4h2v4h-4v-4h-2v4H-92.3z"/>
	<path d="M-80.3-19.5v-16h10v2h2v8h-2v2h-6v4H-80.3z M-72.3-25.5v-8h-4v8H-72.3z"/>
	<path d="M-64.3-23.5v-2h-2v-8h2v-2h8v2h2v4h-8v4h4v-2h4v2h-2v2H-64.3z M-58.3-31.5v-2h-4v2H-58.3z"/>
	<path d="M-50.3-23.5v-2h-2v-8h2v-2h8v2h2v2h-4v-2h-4v8h4v-2h4v2h-2v2H-50.3z"/>
	<path d="M-36.3-23.5v-2h-2v-14h4v4h2v2h-2v8h2v2H-36.3z"/>
	<path d="M-28.3-23.5v-2h-2v-8h2v-2h8v2h2v4h-8v4h4v-2h4v2h-2v2H-28.3z M-22.3-31.5v-2h-4v2H-22.3z"/>
	<path d="M-14.4-23.5v-2h-2v-8h2v-2h6v-6h4v18H-14.4z M-8.4-25.5v-8h-4v8H-8.4z"/>
	<path d="M3.6-23.5v-18h12v2h-8v6h6v2h-6v6h8v2H3.6z"/>
	<path d="M17.6-23.5v-12h6v2h-2v10H17.6z"/>
	<path d="M25.6-23.5v-12h6v2h-2v10H25.6z"/>
	<path d="M35.6-23.5v-2h-2v-8h2v-2h8v2h2v8h-2v2H35.6z M41.6-25.5v-8h-4v8H41.6z"/>
	<path d="M47.6-23.5v-12h6v2h-2v10H47.6z"/>
	<path d="M62.8-24.6c0-0.8,0.6-1.4,1.3-1.4s1.3,0.6,1.3,1.4c0,0.8-0.5,1.4-1.3,1.4C63.3-23.2,62.8-23.8,62.8-24.6z"/>
	<path d="M-136.3,2.9v-18h12v2h2v6h-2v2h-8v8H-136.3z M-126.3-7.1v-6h-6v6H-126.3z"/>
	<path d="M-120.3,2.9v-18h4v18H-120.3z"/>
	<path d="M-112.3,2.9v-2h-2v-8h2v-2h8v2h2v4h-8v4h4v-2h4v2h-2v2H-112.3z M-106.3-5.1v-2h-4v2H-106.3z"/>
	<path d="M-98.3,2.9v-2h-2v-4h2v-2h6v-2h-6v-2h8v2h2v10H-98.3z M-92.3,0.9v-4h-4v4H-92.3z"/>
	<path d="M-84.3,2.9v-2h-2v-2h4v2h2v-2h-2v-2h-2v-2h-2v-2h2v-2h6v2h2v2h-4v-2h-2v2h2v2h2v2h2v2h-2v2H-84.3z"/>
	<path d="M-72.3,2.9v-2h-2v-8h2v-2h8v2h2v4h-8v4h4v-2h4v2h-2v2H-72.3z M-66.3-5.1v-2h-4v2H-66.3z"/>
	<path d="M-52.3,2.9v-2h-2v-14h2v-2h10v2h2v2h-4v-2h-6v14h6v-2h4v2h-2v2H-52.3z"/>
	<path d="M-38.3,2.9v-18h4v18H-38.3z"/>
	<path d="M-32.3-13.1v-2h4v2H-32.3z M-32.3,2.9v-12h4v12H-32.3z"/>
	<path d="M-24.3,2.9v-2h-2v-8h2v-2h8v2h2v2h-4v-2h-4v8h4v-2h4v2h-2v2H-24.3z"/>
	<path d="M-12.3,2.9v-18h4v8h2v-2h4v2h-2v2h-2v2h2v2h2v2h2v2h-4v-2h-2v-2h-2v4H-12.3z"/>
	<path d="M14.4-6.8c0.5-1.8,1.5-4.2,2.1-5.2l1.2-0.1c-0.5,1.3-1.1,3.6-1.3,5.1L14.4-6.8z M17.7-6.8c0.5-1.8,1.5-4.2,2-5.2l1.2-0.1
		c-0.5,1.3-1.1,3.6-1.3,5.1L17.7-6.8z"/>
	<path d="M23.4,2.9v-2h-2v-14h2v-2h10v2h2v14h-2v2H23.4z M31.4,0.9v-14h-6v14H31.4z"/>
	<path d="M37.4,2.9v-18h4v4h2v-2h2v-2h4v2h-2v2h-2v2h-2v4h2v2h2v2h2v2h2v2h-4v-2h-2v-2h-2v-2h-2v6H37.4z"/>
	<path d="M57.5-12.2c-0.5,1.8-1.5,4.2-2,5.2l-1.2,0.2c0.5-1.3,1.1-3.6,1.3-5.2L57.5-12.2z M60.7-12.2c-0.5,1.8-1.5,4.2-2,5.2
		l-1.2,0.2c0.5-1.3,1.1-3.6,1.3-5.2L60.7-12.2z"/>
	<path d="M69.2,2.9v-2h-2v-14h4v4h2v2h-2v8h2v2H69.2z"/>
	<path d="M77.2,2.9v-2h-2v-8h2v-2h8v2h2v8h-2v2H77.2z M83.2,0.9v-8h-4v8H83.2z"/>
	<path d="M97.2,2.9v-2h-2v-14h2v-2h10v2h2v2h-4v-2h-6v14h6v-2h4v2h-2v2H97.2z"/>
	<path d="M113.2,2.9v-2h-2v-8h2v-2h8v2h2v8h-2v2H113.2z M119.2,0.9v-8h-4v8H119.2z"/>
	<path d="M125.2,2.9v-12h10v2h2v10h-4v-10h-2v2h-2v8H125.2z"/>
	<path d="M141.2,2.9v-2h-2v-14h4v4h2v2h-2v8h2v2H141.2z"/>
	<path d="M147.2-13.1v-2h4v2H147.2z M147.2,2.9v-12h4v12H147.2z"/>
	<path d="M153.2,2.9v-12h10v2h2v10h-4v-10h-2v2h-2v8H153.2z"/>
	<path d="M169.2,2.9v-2h-2v-10h4v10h2v-2h2v-8h4v12H169.2z"/>
	<path d="M183.2,2.9v-2h-2v-8h2v-2h8v2h2v4h-8v4h4v-2h4v2h-2v2H183.2z M189.2-5.1v-2h-4v2H189.2z"/>
	<path d="M202.3,1.8c0-0.8,0.6-1.4,1.3-1.4c0.8,0,1.3,0.6,1.3,1.4c0,0.8-0.5,1.4-1.3,1.4C202.9,3.2,202.3,2.6,202.3,1.8z"/>
</g>
</svg>
