<?xml version="1.0" encoding="utf-8"?>
<!-- Generator: Adobe Illustrator 20.1.0, SVG Export Plug-In . SVG Version: 6.00 Build 0)  -->
<!DOCTYPE svg PUBLIC "-//W3C//DTD SVG 1.1//EN" "http://www.w3.org/Graphics/SVG/1.1/DTD/svg11.dtd" [
	<!ENTITY st0 "fill:#FFFFFF;">
	<!ENTITY st1 "fill:#1C1C1C;">
]>
<svg version="1.1" id="圖層_1" xmlns="http://www.w3.org/2000/svg" xmlns:xlink="http://www.w3.org/1999/xlink" x="0px" y="0px"
	 viewBox="0 0 500 500" style="enable-background:new 0 0 500 500;" xml:space="preserve">
<path id="path4109" style="&st0;" d="M-54.4-171.4c-0.1,4.5-0.1,9-0.1,13.6l0,1.9l-1.9,0.1c-4.5,0.1-9,0.2-13.6,0.2
	c-0.2,45.9-0.1,91.8-0.1,137.7v2l-2,0c-3.8,0-7.6,0.1-11.5,0.2l-2.1,0.1l0-2.1c0.1-4.5,0-9,0-13.4c-15.6-0.1-31.2-0.2-46.7,0.1
	c0,15.5,0,31,0,46.5c4.5,0.1,9.1,0.3,13.7,0l2.5-0.2l-0.4,2.5c-0.7,4.5-0.2,9-0.2,13.5c4.3,0.2,8.6,0.3,13,0.3h1.9l0.1,1.9
	c0.7,9.6,0.4,19.2,0.5,28.9c4.5,0.2,9,0.3,13.5,0.3l2,0l0,2c0.1,9.6,0.1,19.2,0.2,28.9c4.5,0.1,9.1,0.3,13.6,0l2.3-0.1l-0.2,2.3
	c-0.8,9.6-0.1,19.3-0.2,29c4.4,0.1,8.8,0.1,13.2,0.2h2l0,2c0.2,14.9,0.1,29.7,0.3,44.6c25.6,0.4,51.3,0.4,76.9,0.4
	c26.3,0,52.5,0.2,78.8-0.5c-0.4-14.8,0.9-29.6,0.3-44.4l-0.1-2.1l2.1,0c4.4,0.1,8.8,0,13.2-0.1c0.2-14.7,0.2-29.5,0.2-44.2v-1.8
	l1.8-0.2c4.5-0.4,9-0.5,13.5-0.4c0.1-16.5-0.2-33,0.3-49.5v0v0c-0.5-19.8-0.2-39.7-0.4-59.5c-4.4,0-8.9,0-13.3-0.1l-1.9,0l0-1.9
	c-0.1-4.4-0.1-8.8-0.1-13.2c-4.6-0.1-9.1,0-13.6-0.2l-1.8-0.1l-0.1-1.8c-0.3-4.5-0.2-9.1-0.2-13.8c-9.7,0-19.3,0-29-0.1l-2,0l0-1.9
	c-0.1-4.4-0.1-8.7-0.1-13.1c-14.8-0.8-29.7-0.3-44.6-0.4l-1.9,0L23.4-80c-0.2-4.5-0.3-9-0.3-13.6c-9.7,0-19.3,0-29-0.2l-1.9-0.1
	l0-1.9c-0.2-20-0.1-40-0.1-60c-2.6,0-5.1,0-7.7-0.1c-1.9,0-3.8,0-5.7,0l-2,0l0-2c0.1-4.6,0.1-9.2-0.4-13.7
	C-34-171.4-44.2-171.4-54.4-171.4L-54.4-171.4z"/>
<path id="path3016" style="&st1;" d="M-54.4-171.4c10.2,0.1,20.4,0,30.6,0c0.5,5.1,0.5,10.3,0.4,15.4c-10.4,0.1-20.8,0-31.1,0.1
	C-54.5-161.1-54.5-166.2-54.4-171.4z"/>
<path id="path3018" style="&st1;" d="M-70.1-155.7c5.2,0,10.3,0,15.5-0.2c0,57.1,0.1,114.2,0,171.3c-5.2,0.1-10.4,0.1-15.6,0
	c-0.1-5.1-0.1-10.2,0-15.4c-5.2-0.2-10.3-0.2-15.5-0.1c-0.2-5.2-0.2-10.4,0-15.7c5.2-0.2,10.3-0.1,15.5-0.2
	C-70.2-62.6-70.3-109.1-70.1-155.7L-70.1-155.7z"/>
<path id="path3020" style="&st1;" d="M-23.4-155.6c5.1-0.1,10.3,0,15.5,0C-7.9-135-8-114.3-7.8-93.7c10.3,0.3,20.6,0.1,30.9,0.2
	c0,5.1,0,10.3,0.3,15.4c15.5,0.2,31-0.4,46.5,0.4c-0.1,5,0,10.1,0.1,15.1c10.3,0.2,20.7,0.1,31,0.1c0.1,5.2-0.3,10.4,0.3,15.5
	c5.1,0.4,10.3,0.2,15.4,0.3c-0.1,5,0,10.1,0.1,15.1c5.1,0.1,10.2,0.1,15.3,0.1c0.2,19.9-0.2,39.7,0.4,59.5
	c-0.5,16.5-0.2,33-0.3,49.6c-5.1,0-10.2-0.1-15.3,0.6c0,15.4,0,30.7-0.2,46.1c-5.1,0.2-10.2,0.3-15.3,0.1
	c-0.6-15.6-0.3-31.3-0.2-46.9c5.1,0,10.3,0,15.4,0c0-36.3,0-72.6,0.1-108.9c-5.1-0.1-10.3-0.1-15.4,0c-0.3-5.1,0-10.1-0.4-15.2
	c-5.1-1-10.3-0.4-15.4-0.4c-0.1,15.6,0.2,31.1-0.1,46.7c-5.1,0-10.2,0-15.2,0c-0.4-20.8,0-41.5-0.1-62.3c-10.4-0.1-20.8,0-31.2,0
	c0,15.6,0.2,31.1,0,46.7c-5.2,0.1-10.3,0.1-15.5,0c-0.1-20.8-0.1-41.5,0.1-62.3C13-78.1,2.6-78.1-7.9-78c-0.1,20.7,0.1,41.5,0,62.2
	c-5.2,0.1-10.4,0.2-15.6,0C-23.5-62.4-23.5-109-23.4-155.6L-23.4-155.6z"/>
<path id="path3026" style="&st1;" d="M-132.5-31.2c15.6-0.3,31.1-0.2,46.7-0.1c0.1,5.2,0.2,10.3,0,15.5c-10.3,0.2-20.7,0.1-31,0.1
	c-0.4,10.3,0.5,20.6-0.1,30.9c-5.2,0.6-10.4,0.2-15.6,0.1C-132.5-0.2-132.4-15.7-132.5-31.2z"/>
<path id="path3030" style="&st1;" d="M-116.4,15.6c5-0.8,10.1-0.5,15.1-0.3c0.1,5.2,0.1,10.4,0.1,15.6c5.2,0,10.4,0,15.6,0.1
	c0.1,10.4,0,20.7,0.1,31c5.1,0,10.3,0,15.4,0c-0.1,10.4,0.7,20.8-0.4,31.2c-5.1,0.5-10.1,0.1-15.2,0c-0.2-10.3-0.1-20.5-0.2-30.8
	c-5.1,0-10.3-0.1-15.4-0.3c-0.2-10.2,0.3-20.5-0.6-30.6c-5,0-10-0.1-14.9-0.3C-116.9,25.9-117.6,20.7-116.4,15.6L-116.4,15.6z"/>
<path id="path3038" style="&st1;" d="M-69.8,93.2c5.1-0.4,10.2-0.2,15.3-0.1c0.1,10.3,0,20.7,0,31c5.2,0,10.4,0,15.6,0.2
	c0.1,10.3-0.1,20.7,0.1,31c41.4,0.1,82.8,0.1,124.2,0.1c0.2-10.3,0-20.7,0.1-31c5.3-0.1,10.6-0.1,15.9,0.2c0.8,15.5-0.7,31-0.2,46.5
	c-26.3,0.6-52.5,0.4-78.8,0.4c-25.6,0-51.3,0-76.9-0.4c-0.2-15.5-0.1-31-0.3-46.5c-5.1,0-10.1-0.1-15.2-0.2
	C-70.1,114-70.9,103.5-69.8,93.2L-69.8,93.2z"/>
</svg>
